<?xml version="1.0" standalone="no"?><!DOCTYPE svg PUBLIC "-//W3C//DTD SVG 1.1//EN" "http://www.w3.org/Graphics/SVG/1.1/DTD/svg11.dtd"><svg class="icon" width="32px" height="32.00px" viewBox="0 0 1024 1024" version="1.1" xmlns="http://www.w3.org/2000/svg"><path fill="#333333" d="M224 256h-64a31.936 31.936 0 1 1 0-64h704a31.936 31.936 0 1 1 0 64h-64V895.872A64 64 0 0 1 736.128 960H287.872a64 64 0 0 1-63.872-64.128V256zM384 96c0-17.664 14.528-32 31.936-32H608c17.664 0 31.936 14.208 31.936 32 0 17.664-14.528 32-31.936 32H416A31.872 31.872 0 0 1 384 96zM288 256v608.256c0 17.152 14.4 31.744 32.192 31.744h383.616a32 32 0 0 0 32.192-31.744V256h-448z m64 96a31.936 31.936 0 1 1 64 0v448a31.936 31.936 0 1 1-64 0v-448z m128 0a31.936 31.936 0 1 1 64 0v448a31.936 31.936 0 1 1-64 0v-448z m128 0a31.936 31.936 0 1 1 64 0v448a31.936 31.936 0 1 1-64 0v-448z" /></svg>