<?xml version="1.0" standalone="no"?><!DOCTYPE svg PUBLIC "-//W3C//DTD SVG 1.1//EN" "http://www.w3.org/Graphics/SVG/1.1/DTD/svg11.dtd"><svg class="icon" width="32px" height="32.00px" viewBox="0 0 1024 1024" version="1.1" xmlns="http://www.w3.org/2000/svg"><path fill="#333333" d="M874.666667 768a21.333333 21.333333 0 0 1 21.333333 21.333333v42.666667a21.333333 21.333333 0 0 1-21.333333 21.333333h-341.333334a21.333333 21.333333 0 0 1-21.333333-21.333333v-42.666667a21.333333 21.333333 0 0 1 21.333333-21.333333h341.333334zM607.786667 125.141333a21.333333 21.333333 0 0 1 30.165333 0l211.2 211.2a21.333333 21.333333 0 0 1 0 30.165334L389.546667 826.154667a21.333333 21.333333 0 0 1-17.066667 6.144l-193.536-17.621334a21.333333 21.333333 0 0 1-19.328-19.285333l-17.578667-193.621333a21.333333 21.333333 0 0 1 6.144-16.981334L607.786667 125.141333z m15.061333 105.642667l-393.130667 393.130667 10.069334 110.634666 110.634666 10.026667 259.456-259.498667-118.869333-118.869333 60.330667-60.330667 118.869333 118.869334 73.301333-73.301334-120.661333-120.661333z" /></svg>