<?xml version="1.0" standalone="no"?><!DOCTYPE svg PUBLIC "-//W3C//DTD SVG 1.1//EN" "http://www.w3.org/Graphics/SVG/1.1/DTD/svg11.dtd"><svg class="icon" width="32px" height="32.00px" viewBox="0 0 1024 1024" version="1.1" xmlns="http://www.w3.org/2000/svg"><path fill="#333333" d="M402.474667 64H70.272C31.445333 64 0 94.848 0 132.821333v758.357334c0 37.973333 31.445333 68.821333 70.272 68.821333h883.456c38.826667 0 70.272-30.848 70.272-68.821333V292.010667l-0.597333-8.576-1.493334-6.656c-8.704-32.512-36.181333-53.589333-68.181333-53.589334l-422.912-0.085333-66.261333-122.496A70.485333 70.485333 0 0 0 402.474667 64zM393.386667 147.498667l74.069333 136.917333 2.688 4.352c7.936 11.093333 20.949333 17.877333 34.986667 17.877333h433.664L938.666667 876.458667H85.333333V147.498667h308.053334z" /></svg>