<?xml version="1.0" standalone="no"?><!DOCTYPE svg PUBLIC "-//W3C//DTD SVG 1.1//EN" "http://www.w3.org/Graphics/SVG/1.1/DTD/svg11.dtd"><svg class="icon" width="32px" height="32.00px" viewBox="0 0 1024 1024" version="1.1" xmlns="http://www.w3.org/2000/svg"><path fill="#333333" d="M392.490667 105.216c12.074667 0 23.552 5.248 31.445333 14.378667l112.341333 129.834666h351.744c20.906667 0 38.186667 15.36 41.130667 35.413334l0.426667 6.186666v586.154667a41.6 41.6 0 0 1-41.557334 41.6H135.978667a41.6 41.6 0 0 1-41.6-41.6V146.816c0-22.997333 18.645333-41.6 41.6-41.6z m-24.192 71.253333H165.290667v670.976h693.333333V326.058667h-341.162667a43.093333 43.093333 0 0 1-27.264-9.728l-5.333333-5.205334-116.565333-134.656z m165.546666 253.952c4.053333 0 7.253333 3.413333 7.253334 7.637334v91.093333h87.893333c4.266667 0 7.808 3.328 7.808 7.552v45.056a7.722667 7.722667 0 0 1-7.808 7.509333h-87.893333v91.093334a7.466667 7.466667 0 0 1-7.253334 7.637333h-43.690666a7.509333 7.509333 0 0 1-7.253334-7.637333v-91.093334h-87.893333c-4.266667 0-7.808-3.413333-7.808-7.509333v-45.056a7.68 7.68 0 0 1 7.808-7.552h87.893333v-91.093333c0-4.181333 3.328-7.637333 7.253334-7.637334z" /></svg>