<?xml version="1.0" standalone="no"?><!DOCTYPE svg PUBLIC "-//W3C//DTD SVG 1.1//EN" "http://www.w3.org/Graphics/SVG/1.1/DTD/svg11.dtd"><svg class="icon" width="32px" height="32.00px" viewBox="0 0 1024 1024" version="1.1" xmlns="http://www.w3.org/2000/svg"><path fill="#333333" d="M512 85.333333c235.648 0 426.666667 191.018667 426.666667 426.666667s-191.018667 426.666667-426.666667 426.666667S85.333333 747.648 85.333333 512 276.352 85.333333 512 85.333333z m74.197333 166.656c-55.893333-26.922667-106.24-23.04-142.08 15.744-5.802667 6.314667-11.776 15.36-17.92 27.306667l-5.248 10.88-2.688 5.973333-5.376 13.056-5.504 14.421334-5.589333 15.872-5.674667 17.28-8.746666 28.672-5.034667 17.834666H292.053333l-4.522666 0.298667a36.053333 36.053333 0 0 0 4.522666 71.850667l71.381334-0.042667-0.64 2.688-6.485334 26.88-6.613333 28.416-13.653333 61.44-10.666667 50.090667-14.762667 72.32a36.053333 36.053333 0 0 0 70.698667 14.165333l17.066667-83.157333 9.898666-45.866667 9.557334-42.794667 9.216-39.68 8.874666-36.608 1.962667-7.893333h58.282667l4.522666-0.256a36.053333 36.053333 0 0 0-4.522666-71.808l-39.04-0.042667 0.597333-1.92 4.992-16.896 7.168-22.613333 4.522667-13.226667 6.4-17.066666 2.005333-4.906667 3.925333-8.704 1.877334-3.84 3.541333-6.4c1.706667-2.858667 3.413333-5.12 4.949333-6.826667 11.776-12.757333 28.032-13.994667 57.770667 0.341334a36.053333 36.053333 0 1 0 31.317333-64.981334z m17.877334 175.488a36.053333 36.053333 0 0 0-54.442667 47.018667l46.890667 62.421333-67.242667 73.173334-3.072 3.84a36.053333 36.053333 0 0 0 56.149333 44.970666l58.197334-63.36 45.525333 60.586667 3.2 3.712a36.053333 36.053333 0 0 0 54.442667-47.018667l-53.504-71.253333 55.04-59.733333 3.072-3.84a36.053333 36.053333 0 0 0-56.149334-45.013334l-45.994666 50.005334-38.912-51.797334z" /></svg>