<?xml version="1.0" standalone="no"?><!DOCTYPE svg PUBLIC "-//W3C//DTD SVG 1.1//EN" "http://www.w3.org/Graphics/SVG/1.1/DTD/svg11.dtd"><svg class="icon" width="32px" height="32.00px" viewBox="0 0 1024 1024" version="1.1" xmlns="http://www.w3.org/2000/svg"><path fill="#333333" d="M616.789333 64c8.533333 0 16.64 3.413333 22.613334 9.386667l215.210666 215.210666c5.973333 5.973333 9.386667 14.208 9.386667 22.698667V554.666667h-72.021333V393.984H576a41.984 41.984 0 0 1-41.984-41.984V135.978667H231.978667v752H298.666667V960H192a32 32 0 0 1-31.701333-27.648l-0.298667-4.352V96a32 32 0 0 1 32-32z m-14.805333 73.813333v188.16h188.202667l-188.16-188.16z"  /><path fill="#333333" d="M938.666667 706.133333c0-60.074667-40.106667-108.8-89.6-108.8h-89.6v362.666667h59.733333v-145.066667h35.84l23.893333 145.066667H938.666667l-28.672-174.250667c18.261333-20.565333 28.629333-49.408 28.672-79.616z m-119.466667 36.266667v-72.533333h29.866667c16.512 0 29.866667 16.213333 29.866666 36.266666s-13.354667 36.266667-29.866666 36.266667h-29.866667zM640 669.866667c16.512 0 29.866667 16.213333 29.866667 36.266666v36.266667h-59.733334v-36.266667c0-20.053333 13.354667-36.266667 29.866667-36.266666m0-72.533334c-49.493333 0-89.6 48.725333-89.6 108.8v253.866667h59.733333v-145.066667h59.733334v145.066667h59.733333v-253.866667c0-60.074667-40.106667-108.8-89.6-108.8z m-119.466667 0v253.866667c0 60.074667-40.106667 108.8-89.6 108.8-49.493333 0-89.6-48.725333-89.6-108.8v-36.266667h59.733334v36.266667c0 20.053333 13.354667 36.266667 29.866666 36.266667 16.512 0 29.866667-16.213333 29.866667-36.266667V597.333333h59.733333z"  /></svg>