<?xml version="1.0" standalone="no"?><!DOCTYPE svg PUBLIC "-//W3C//DTD SVG 1.1//EN" "http://www.w3.org/Graphics/SVG/1.1/DTD/svg11.dtd"><svg class="icon" width="32px" height="32.00px" viewBox="0 0 1024 1024" version="1.1" xmlns="http://www.w3.org/2000/svg"><path fill="#333333" d="M512 981.333333C252.8 981.333333 42.666667 771.2 42.666667 512S252.8 42.666667 512 42.666667s469.333333 210.133333 469.333333 469.333333-210.133333 469.333333-469.333333 469.333333z m0-82.090666A387.242667 387.242667 0 0 0 899.242667 512 387.242667 387.242667 0 0 0 512 124.757333 387.242667 387.242667 0 0 0 124.757333 512 387.242667 387.242667 0 0 0 512 899.242667z m209.024-431.146667a44.8 44.8 0 0 1-0.085333 89.6l-113.792-0.128-304.170667-0.170667a44.8 44.8 0 0 1 0.085333-89.6l304.170667 0.213334 113.792 0.085333z" /></svg>