<?xml version="1.0" standalone="no"?><!DOCTYPE svg PUBLIC "-//W3C//DTD SVG 1.1//EN" "http://www.w3.org/Graphics/SVG/1.1/DTD/svg11.dtd"><svg class="icon" width="32px" height="32.00px" viewBox="0 0 1024 1024" version="1.1" xmlns="http://www.w3.org/2000/svg"><path fill="#333333" d="M553.088 553.770667l0.085333 150.442666a41.045333 41.045333 0 0 1-82.090666 0.042667l-0.128-150.570667-150.528-0.085333a41.045333 41.045333 0 0 1 0-82.090667l150.485333 0.085334V425.472l-0.085333-104.32a41.045333 41.045333 0 0 1 82.090666-0.042667l0.085334 104.32v46.250667h46.293333l104.32 0.085333a41.045333 41.045333 0 0 1-0.085333 82.090667l-104.32-0.085333h-46.122667zM512 981.333333C252.8 981.333333 42.666667 771.2 42.666667 512S252.8 42.666667 512 42.666667s469.333333 210.133333 469.333333 469.333333-210.133333 469.333333-469.333333 469.333333z m0-82.090666A387.242667 387.242667 0 0 0 899.242667 512 387.242667 387.242667 0 0 0 512 124.757333 387.242667 387.242667 0 0 0 124.757333 512 387.242667 387.242667 0 0 0 512 899.242667z" /></svg>