<?xml version="1.0" standalone="no"?><!DOCTYPE svg PUBLIC "-//W3C//DTD SVG 1.1//EN" "http://www.w3.org/Graphics/SVG/1.1/DTD/svg11.dtd"><svg class="icon" width="32px" height="30.45px" viewBox="0 0 1076 1024" version="1.1" xmlns="http://www.w3.org/2000/svg"><path fill="#333333" d="M888.335419 118.14243L43.295163 398.769863a15.225081 15.225081 0 0 0-3.100539 27.445507l294.981778 178.998675a15.02208 15.02208 0 0 0 14.612723 0.602882l133.524112-65.25485-65.226141 133.437986a14.90028 14.90028 0 0 0 0.689008 14.526597L597.947031 983.967777a15.265682 15.265682 0 0 0 27.445507-3.100539l282.263828-843.403861a15.671684 15.671684 0 0 0 0.086126-9.674828 15.428083 15.428083 0 0 0-19.407073-9.646119zM596.88481 850.213995l-104.528336-172.223424L622.894882 411.258143a7.632841 7.632841 0 0 0-10.249002-10.249002L345.884743 531.576258 174.407745 427.392426l634.404606-210.664359-211.95625 633.399802z" /></svg>