<?xml version="1.0" standalone="no"?><!DOCTYPE svg PUBLIC "-//W3C//DTD SVG 1.1//EN" "http://www.w3.org/Graphics/SVG/1.1/DTD/svg11.dtd"><svg class="icon" width="32px" height="32.00px" viewBox="0 0 1024 1024" version="1.1" xmlns="http://www.w3.org/2000/svg"><path fill="#333333" d="M661.333333 91.946667c41.301333 0 75.178667 31.786667 78.464 72.277333l0.256 6.442667v113.28H853.333333c41.301333 0 75.178667 31.786667 78.464 72.277333l0.256 6.442667v298.666666c0 41.301333-31.786667 75.178667-72.277333 78.464l-6.442667 0.256h-113.28V853.333333c0 41.301333-31.786667 75.178667-72.277333 78.464l-6.442667 0.256h-298.666666a78.72 78.72 0 0 1-78.464-72.277333L283.946667 853.333333v-113.28H170.666667a78.72 78.72 0 0 1-78.464-72.277333l-0.256-6.442667v-298.666666c0-41.301333 31.786667-75.178667 72.277333-78.464L170.666667 283.946667h113.28V170.666667c0-41.301333 31.786667-75.178667 72.277333-78.464l6.442667-0.256h298.666666z m192 264.106666l-113.28-0.042666v113.066666c0 41.344-31.786667 75.221333-72.277333 78.506667l-6.826667 0.256-298.24-1.621333a6.613333 6.613333 0 0 0-6.314666 4.48l-0.341334 2.133333V853.333333c0 2.901333 1.877333 5.418667 4.522667 6.272l2.090667 0.341334h298.666666a6.613333 6.613333 0 0 0 6.272-4.522667l0.341334-2.090667v-113.28H512a36.053333 36.053333 0 0 1-4.522667-71.808l4.522667-0.298666h341.333333a6.613333 6.613333 0 0 0 6.272-4.522667l0.341334-2.090667v-298.666666a6.613333 6.613333 0 0 0-4.522667-6.272L853.333333 356.053333zM597.333333 746.666667a42.666667 42.666667 0 1 1 0 85.333333 42.666667 42.666667 0 0 1 0-85.333333z m64-582.613334h-298.666666a6.613333 6.613333 0 0 0-6.272 4.522667L356.053333 170.666667l-0.042666 113.28H512a36.053333 36.053333 0 0 1 4.522667 71.808L512 356.053333H170.666667a6.613333 6.613333 0 0 0-6.272 4.522667l-0.341334 2.090667v298.666666c0 2.901333 1.877333 5.418667 4.522667 6.272l2.090667 0.341334h113.28v-115.541334a78.72 78.72 0 0 1 72.704-78.08l6.4-0.213333 298.24 1.621333c2.986667 0 5.461333-1.92 6.314666-4.522666l0.341334-2.133334V170.666667a6.613333 6.613333 0 0 0-4.522667-6.272l-2.090667-0.341334zM426.666667 192a42.666667 42.666667 0 1 1 0 85.333333 42.666667 42.666667 0 0 1 0-85.333333z" /></svg>