<?xml version="1.0" standalone="no"?><!DOCTYPE svg PUBLIC "-//W3C//DTD SVG 1.1//EN" "http://www.w3.org/Graphics/SVG/1.1/DTD/svg11.dtd"><svg class="icon" width="32px" height="32.00px" viewBox="0 0 1024 1024" version="1.1" xmlns="http://www.w3.org/2000/svg"><path fill="#333333" d="M512 195.2l229.589333 76.8L512 348.8l-229.589333-76.8L512 195.2M512 128L128 256v32l384 128 384-128V256l-384-128z m0 698.197333l-320-104.021333H128V768l384 128 384-128v-45.824h-64L512 826.197333z m0-160l-320-104.021333H128v45.824l384 128 384-128v-45.824h-64L512 666.197333z m0-160L192 402.176H128V448l384 128 384-128V402.176h-64L512 506.197333z" /></svg>