<?xml version="1.0" standalone="no"?><!DOCTYPE svg PUBLIC "-//W3C//DTD SVG 1.1//EN" "http://www.w3.org/Graphics/SVG/1.1/DTD/svg11.dtd"><svg class="icon" width="32px" height="32.00px" viewBox="0 0 1024 1024" version="1.1" xmlns="http://www.w3.org/2000/svg"><path fill="#333333" d="M896 256v32l-384 128-384-128V256l384-128 384 128z m-384 224L224 384 128 416v32l384 128 384-128v-32L800 384 512 480zM512 640l-288-96L128 576v32l384 128 384-128v-32l-96-32L512 640z m0 160L224 704 128 736V768l384 128 384-128v-32l-96-32L512 800z" /></svg>