<?xml version="1.0" standalone="no"?><!DOCTYPE svg PUBLIC "-//W3C//DTD SVG 1.1//EN" "http://www.w3.org/Graphics/SVG/1.1/DTD/svg11.dtd"><svg class="icon" width="32px" height="32.00px" viewBox="0 0 1024 1024" version="1.1" xmlns="http://www.w3.org/2000/svg"><path fill="#333333" d="M616.789333 64c8.533333 0 16.64 3.413333 22.613334 9.386667l215.210666 215.210666c5.973333 5.973333 9.386667 14.208 9.386667 22.698667V512h-72.021333V393.984H576a41.984 41.984 0 0 1-41.984-41.984V135.978667H231.978667V512H160V96a32 32 0 0 1 32-32z m-14.805333 73.813333v188.16h188.202667l-188.16-188.16zM179.2 576h102.4v76.8H179.2v-76.8zM128 652.8h51.2v76.8H128v-76.8z m51.2 76.8h51.2v76.8H179.2v-76.8z m51.2 76.8h51.2v76.8H230.4v-76.8zM128 883.2h102.4v76.8H128v-76.8z m307.2-153.6H384v-153.6H332.8v384H384v-153.6h51.2v153.6h51.2v-384h-51.2v153.6z m102.4-76.8v307.2H691.2v-76.8h-102.4v-76.8h102.4v-76.8h-102.4v-76.8h102.4v-76.8h-153.6v76.8z m256 230.4v-307.2h-51.2v384h51.2v-76.8z m51.2-307.2H896v384h-51.2v-384z" /></svg>