<?xml version="1.0" standalone="no"?><!DOCTYPE svg PUBLIC "-//W3C//DTD SVG 1.1//EN" "http://www.w3.org/Graphics/SVG/1.1/DTD/svg11.dtd"><svg class="icon" width="32px" height="32.00px" viewBox="0 0 1024 1024" version="1.1" xmlns="http://www.w3.org/2000/svg"><path fill="#333333" d="M616.789333 64c8.533333 0 16.64 3.413333 22.613334 9.386667l215.210666 215.210666c5.973333 5.973333 9.386667 14.208 9.386667 22.698667V554.666667h-72.021333V393.984H576a41.984 41.984 0 0 1-41.984-41.984V135.978667H231.978667v752H298.666667V960H192a32 32 0 0 1-31.701333-27.648l-0.298667-4.352V96a32 32 0 0 1 32-32z m-14.805333 73.813333v188.16h188.202667l-188.16-188.16z"  /><path fill="#333333" d="M652.586667 939.178667c13.525333 0 26.069333-2.901333 37.461333-8.362667l12.757333 29.184h51.072l-26.538666-62.677333c20.181333-28.714667 31.573333-73.429333 31.573333-129.066667 0-105.344-41.472-170.752-106.24-170.752-64.725333 0-106.496 65.109333-106.496 170.752-0.128 105.941333 41.173333 170.922667 106.410667 170.922667z m0-273.066667c30.293333 0 50.517333 39.765333 50.517333 102.144 0 24.021333-3.456 43.989333-9.6 58.24l-4.992-9.941333h-46.72l22.4 52.053333a35.669333 35.669333 0 0 1-11.690667 2.005333c-30.378667 0-50.602667-39.552-50.602666-102.357333 0.128-62.677333 20.309333-102.186667 50.688-102.186667z m-219.008 210.688c-22.784 0-38.485333-15.104-39.850667-38.698667H341.333333c0.853333 62.378667 35.370667 101.077333 89.941334 101.077334 56.618667 0 91.050667-40.832 91.050666-108.544 0-51.456-19.2-80.341333-61.824-92.714667l-27.861333-8.021333c-22.826667-6.784-32.426667-17.109333-32.426667-34.773334 0-21.589333 12.8-35.242667 32-35.242666 19.285333 0 33.834667 15.957333 35.114667 38.826666h50.773333c-0.853333-59.946667-35.925333-101.034667-86.528-101.034666-52.096 0-85.930667 41.514667-85.930666 104.917333 0 51.029333 20.309333 83.370667 59.861333 94.549333l28.458667 8.533334c24.746667 7.424 34.133333 17.066667 34.133333 35.029333 0.085333 21.12-13.909333 36.096-34.517333 36.096zM938.666667 862.421333h-91.776V606.293333H791.893333v324.096H938.666667v-67.968z"  /></svg>