<?xml version="1.0" standalone="no"?><!DOCTYPE svg PUBLIC "-//W3C//DTD SVG 1.1//EN" "http://www.w3.org/Graphics/SVG/1.1/DTD/svg11.dtd"><svg class="icon" width="32px" height="32.00px" viewBox="0 0 1024 1024" version="1.1" xmlns="http://www.w3.org/2000/svg"><path fill="#333333" d="M783.872 747.861333h-1.877333c46.677333-75.050667 30.464-173.781333-37.674667-229.333333a169.557333 169.557333 0 0 0-228.394667 12.288 176.64 176.64 0 0 0-13.653333 232.064 169.813333 169.813333 0 0 0 225.28 39.893333l118.784 118.784 54.784-53.76-117.248-119.936z m-78.378667-23.765333a94.293333 94.293333 0 0 1-66.816 27.605333h0.213334-1.877334 1.706667a95.573333 95.573333 0 0 1-93.141333-78.08 97.066667 97.066667 0 0 1 57.429333-108.202666 94.293333 94.293333 0 0 1 115.456 36.437333 98.005333 98.005333 0 0 1-12.970667 122.24z"  /><path fill="#333333" d="M122.88 145.066667v702.72a42.666667 42.666667 0 0 0 42.666667 42.666666h387.498666a248.32 248.32 0 0 1-166.058666-234.88c0-137.216 110.250667-248.448 246.314666-248.448a243.2 243.2 0 0 1 106.410667 24.32V145.066667a42.666667 42.666667 0 0 0-42.666667-42.666667H165.546667a42.666667 42.666667 0 0 0-42.666667 42.666667z m272.213333 316.842666H184.448v-81.493333h210.56v81.493333z m70.144-163.84h-280.746666v-81.493333h280.746666v81.493333z"  /></svg>